<?xml version="1.0" standalone="no"?>
<!DOCTYPE svg PUBLIC "-//W3C//DTD SVG 20010904//EN"
 "http://www.w3.org/TR/2001/REC-SVG-20010904/DTD/svg10.dtd">
<svg version="1.0" xmlns="http://www.w3.org/2000/svg"
 width="32.000000pt" height="32.000000pt" viewBox="0 0 32.000000 32.000000"
 preserveAspectRatio="xMidYMid meet">

<g transform="translate(0.000000,32.000000) scale(0.100000,-0.100000)"
fill="#000000" stroke="none">
<path d="M0 160 l0 -160 160 0 160 0 0 160 0 160 -160 0 -160 0 0 -160z m285
40 c-1 -87 -17 -119 -72 -145 -67 -32 -145 -1 -172 68 -18 47 -8 82 34 124
l34 34 88 -3 88 -3 0 -75z"/>
<path d="M135 252 c-77 -25 -99 -99 -46 -153 22 -21 39 -29 66 -29 72 0 105
42 105 135 l0 55 -52 -1 c-29 -1 -62 -4 -73 -7z"/>
</g>
</svg>
